<svg preserveAspectRatio="none" width="100%" height="100%" overflow="visible" style="display: block;" viewBox="0 0 14.6667 14.6667" fill="none" xmlns="http://www.w3.org/2000/svg">
  <path d="M13.3333 7.33333C13.3333 4.01962 10.647 1.33333 7.33333 1.33333C4.01962 1.33333 1.33333 4.01962 1.33333 7.33333C1.33333 10.647 4.01962 13.3333 7.33333 13.3333C10.647 13.3333 13.3333 10.647 13.3333 7.33333ZM6.66667 4.66667C6.66667 4.29848 6.96514 4 7.33333 4C7.70152 4 8 4.29848 8 4.66667V8.39063L9.52865 6.86198C9.789 6.60163 10.211 6.60163 10.4714 6.86198C10.7317 7.12233 10.7317 7.54434 10.4714 7.80469L7.80469 10.4714C7.54434 10.7317 7.12233 10.7317 6.86198 10.4714L4.19531 7.80469C3.93496 7.54434 3.93496 7.12233 4.19531 6.86198C4.45566 6.60163 4.87767 6.60163 5.13802 6.86198L6.66667 8.39063V4.66667ZM14.6667 7.33333C14.6667 11.3834 11.3834 14.6667 7.33333 14.6667C3.28325 14.6667 0 11.3834 0 7.33333C0 3.28325 3.28325 0 7.33333 0C11.3834 0 14.6667 3.28325 14.6667 7.33333Z" fill="currentColor"/>
</svg>
