<svg preserveAspectRatio="none" width="100%" height="100%" overflow="visible" style="display: block;" viewBox="0 0 14.6667 14.6667" fill="none" xmlns="http://www.w3.org/2000/svg">
  <path d="M13.3333 7.33333C13.3333 4.01962 10.647 1.33333 7.33333 1.33333C4.01962 1.33333 1.33333 4.01962 1.33333 7.33333C1.33333 10.647 4.01962 13.3333 7.33333 13.3333C10.647 13.3333 13.3333 10.647 13.3333 7.33333ZM6.66667 10V6.27604L5.13802 7.80469C4.87767 8.06504 4.45566 8.06504 4.19531 7.80469C3.93496 7.54434 3.93496 7.12233 4.19531 6.86198L6.86198 4.19531L6.91276 4.14974C7.17461 3.93617 7.56061 3.95124 7.80469 4.19531L10.4714 6.86198C10.7317 7.12233 10.7317 7.54434 10.4714 7.80469C10.211 8.06504 9.789 8.06504 9.52865 7.80469L8 6.27604V10C8 10.3682 7.70152 10.6667 7.33333 10.6667C6.96514 10.6667 6.66667 10.3682 6.66667 10ZM14.6667 7.33333C14.6667 11.3834 11.3834 14.6667 7.33333 14.6667C3.28325 14.6667 0 11.3834 0 7.33333C0 3.28325 3.28325 0 7.33333 0C11.3834 0 14.6667 3.28325 14.6667 7.33333Z" fill="currentColor"/>
</svg>
