<svg preserveAspectRatio="none" width="100%" height="100%" overflow="visible" style="display: block;" viewBox="0 0 13.3333 14.6667" fill="none" xmlns="http://www.w3.org/2000/svg">
  <path d="M10.6667 4H2.66667V12.6667C2.66667 12.8435 2.73695 13.013 2.86198 13.138C2.987 13.263 3.15652 13.3333 3.33333 13.3333H10C10.1768 13.3333 10.3463 13.263 10.4714 13.138C10.5964 13.013 10.6667 12.8435 10.6667 12.6667V4ZM8.66667 2C8.66667 1.82319 8.59638 1.65367 8.47135 1.52865C8.34633 1.40362 8.17681 1.33333 8 1.33333H5.33333C5.15652 1.33333 4.987 1.40362 4.86198 1.52865C4.73695 1.65367 4.66667 1.82319 4.66667 2V2.66667H8.66667V2ZM10 2.66667H12.6667C13.0349 2.66667 13.3333 2.96514 13.3333 3.33333C13.3333 3.70152 13.0349 4 12.6667 4H12V12.6667C12 13.1971 11.7891 13.7057 11.4141 14.0807C11.039 14.4558 10.5304 14.6667 10 14.6667H3.33333C2.8029 14.6667 2.29434 14.4558 1.91927 14.0807C1.5442 13.7057 1.33333 13.1971 1.33333 12.6667V4H0.666667C0.298477 4 0 3.70152 0 3.33333C0 2.96514 0.298477 2.66667 0.666667 2.66667H3.33333V2C3.33333 1.46957 3.5442 0.96101 3.91927 0.585938C4.29434 0.210865 4.8029 0 5.33333 0H8C8.53043 0 9.03899 0.210865 9.41406 0.585938C9.78913 0.96101 10 1.46957 10 2V2.66667Z" fill="currentColor"/>
</svg>
