<svg preserveAspectRatio="none" width="100%" height="100%" overflow="visible" style="display: block;" viewBox="0 0 14.6667 14" fill="none" xmlns="http://www.w3.org/2000/svg">
  <path d="M11.3333 13.3333V12H10C9.63181 12 9.33333 11.7015 9.33333 11.3333C9.33333 10.9651 9.63181 10.6667 10 10.6667H11.3333V9.33333C11.3333 8.96514 11.6318 8.66667 12 8.66667C12.3682 8.66667 12.6667 8.96514 12.6667 9.33333V10.6667H14C14.3682 10.6667 14.6667 10.9651 14.6667 11.3333C14.6667 11.7015 14.3682 12 14 12H12.6667V13.3333C12.6667 13.7015 12.3682 14 12 14C11.6318 14 11.3333 13.7015 11.3333 13.3333ZM8.66667 4C8.66667 2.52724 7.47276 1.33333 6 1.33333C4.52724 1.33333 3.33333 2.52724 3.33333 4C3.33333 5.47276 4.52724 6.66667 6 6.66667C7.47276 6.66667 8.66667 5.47276 8.66667 4ZM10 4C10 5.29667 9.38219 6.44814 8.42578 7.17904C8.98478 7.42615 9.50568 7.75824 9.96875 8.16667C10.2448 8.41018 10.2714 8.8313 10.028 9.10742C9.78448 9.38349 9.36336 9.41008 9.08724 9.16667C8.41368 8.57255 7.58279 8.18512 6.69466 8.05143C5.80657 7.91776 4.89865 8.04329 4.08008 8.41276C3.26147 8.78228 2.56663 9.38025 2.07943 10.1348C1.59222 10.8893 1.33328 11.7685 1.33333 12.6667C1.33333 13.0348 1.03484 13.3333 0.666667 13.3333C0.298494 13.3333 2.01968e-05 13.0348 7.12884e-09 12.6667C-5.62822e-05 11.5119 0.333234 10.3815 0.959635 9.41146C1.58599 8.44152 2.47892 7.67299 3.53125 7.19792C3.54525 7.1916 3.55953 7.18525 3.57357 7.17904C2.6174 6.44812 2 5.29648 2 4C2 1.79086 3.79086 0 6 0C8.20914 0 10 1.79086 10 4Z" fill="currentColor"/>
</svg>
