<svg width="100" height="24" viewBox="0 0 100 24" fill="none" xmlns="http://www.w3.org/2000/svg">
<path d="M12.5259 7.82872C12.5259 5.23451 10.4229 3.13149 7.82872 3.13149C5.23451 3.13149 3.13149 5.23451 3.13149 7.82872C3.13149 10.4229 5.23451 12.5259 7.82872 12.5259C10.4229 12.5259 12.5259 10.4229 12.5259 7.82872ZM15.6574 7.82872C15.6574 12.1524 12.1524 15.6574 7.82872 15.6574C3.50504 15.6574 0 12.1524 0 7.82872C0 3.50504 3.50504 0 7.82872 0C12.1524 0 15.6574 3.50504 15.6574 7.82872Z" fill="#1F6F43"/>
<path d="M16.8941 9.75519C17.1963 8.94524 18.0982 8.5337 18.9083 8.83572C20.1415 9.29555 21.2389 10.0587 22.099 11.0549C22.9591 12.0512 23.5539 13.2488 23.8288 14.536C24.1037 15.8232 24.0499 17.1591 23.6718 18.4198C23.2936 19.6806 22.6038 20.8265 21.6657 21.75C20.7277 22.6735 19.5715 23.3457 18.3049 23.7042C17.0384 24.0626 15.7018 24.0959 14.4191 23.801C13.1362 23.5061 11.9483 22.8917 10.9655 22.0161C9.98266 21.1405 9.23677 20.0312 8.79626 18.7908C8.50687 17.976 8.93249 17.0813 9.74732 16.7919C10.5621 16.5025 11.4568 16.9282 11.7463 17.7429C12.0106 18.4872 12.4583 19.1533 13.048 19.6787C13.6377 20.204 14.3507 20.5721 15.1204 20.749C15.8901 20.926 16.6927 20.906 17.4527 20.6909C18.2125 20.4758 18.9062 20.0727 19.469 19.5187C20.0317 18.9646 20.4449 18.2771 20.6718 17.5207C20.8987 16.7643 20.9315 15.9628 20.7666 15.1904C20.6017 14.4182 20.2449 13.6996 19.7289 13.1018C19.2128 12.5039 18.5536 12.0454 17.8135 11.7695C17.0036 11.4672 16.5921 10.5653 16.8941 9.75519Z" fill="#1F6F43"/>
<path d="M6.78489 9.91637V6.78489C6.2084 6.78489 5.74106 6.31755 5.74106 5.74106C5.74106 5.16457 6.2084 4.69723 6.78489 4.69723H7.82872L7.93575 4.70233C8.46197 4.75591 8.87254 5.20069 8.87254 5.74106V9.91637C8.87254 10.4929 8.40521 10.9602 7.82872 10.9602C7.25222 10.9602 6.78489 10.4929 6.78489 9.91637Z" fill="#1F6F43"/>
<path d="M16.1877 13.2233C16.5982 12.8186 17.259 12.8231 17.6637 13.2335L18.3946 13.9746C18.7972 14.383 18.7949 15.0399 18.3895 15.4455L15.4456 18.3895C15.038 18.7969 14.3771 18.7969 13.9695 18.3895C13.5619 17.9819 13.562 17.3211 13.9695 16.9134L16.1795 14.7024L16.1775 14.6994C15.7728 14.2889 15.7772 13.6281 16.1877 13.2233Z" fill="#1F6F43"/>
<path d="M93.6297 18.9571C93.4557 18.9571 93.3687 18.8701 93.3687 18.6961V14.6252L90.5713 11.8381C90.5226 11.7825 90.4912 11.7338 90.4773 11.692C90.4704 11.6433 90.4669 11.5876 90.4669 11.525V5.30377C90.4669 5.1298 90.5539 5.04282 90.7278 5.04282H93.6819C93.8559 5.04282 93.9428 5.1298 93.9428 5.30377V11.6189H96.281V5.30377C96.281 5.1298 96.368 5.04282 96.542 5.04282H99.496C99.67 5.04282 99.757 5.1298 99.757 5.30377V11.525C99.757 11.5876 99.7535 11.6433 99.7465 11.692C99.7396 11.7338 99.7082 11.7825 99.6526 11.8381L96.8656 14.6252V18.6961C96.8656 18.8701 96.7786 18.9571 96.6046 18.9571H93.6297Z" fill="#1F6F43"/>
<path d="M86.0228 18.9571C85.8627 18.9571 85.7236 18.9118 85.6053 18.8214L83.9038 17.2661L82.1815 15.0218C82.1049 14.9244 82.0562 14.8652 82.0354 14.8444C82.0145 14.8165 82.004 14.7539 82.004 14.6565V9.33295C82.004 9.23553 82.0145 9.1729 82.0354 9.14506C82.0632 9.11723 82.1119 9.05808 82.1815 8.96761L83.7786 6.90083L85.6053 5.17851C85.6818 5.11588 85.741 5.07761 85.7827 5.06369C85.8314 5.04978 85.9114 5.04282 86.0228 5.04282H88.601C88.775 5.04282 88.862 5.1298 88.862 5.30377V6.9739C88.862 7.02957 88.855 7.08872 88.8411 7.15135C88.8342 7.20702 88.7994 7.25573 88.7367 7.29749L86.7743 8.64403L85.4904 10.2933V13.7066L86.7952 15.3558L88.7367 16.6919C88.7924 16.7267 88.8272 16.7685 88.8411 16.8172C88.855 16.8659 88.862 16.9181 88.862 16.9738V18.6961C88.862 18.8701 88.775 18.9571 88.601 18.9571H86.0228Z" fill="#1F6F43"/>
<path d="M70.962 18.9571C70.788 18.9571 70.701 18.8701 70.701 18.6961V5.30377C70.701 5.1298 70.788 5.04282 70.962 5.04282H76.8909C77.0579 5.04282 77.1971 5.09849 77.3084 5.20983L79.3961 7.29749C79.5144 7.41579 79.5735 7.55496 79.5735 7.71502V18.6961C79.5735 18.8701 79.4866 18.9571 79.3126 18.9571H76.3586C76.1846 18.9571 76.0976 18.8701 76.0976 18.6961V7.8194H74.177V18.6961C74.177 18.8701 74.09 18.9571 73.916 18.9571H70.962Z" fill="#1F6F43"/>
<path d="M59.2274 18.9571C59.0534 18.9571 58.9664 18.8701 58.9664 18.6961V9.0198C58.9664 8.92934 59.0012 8.82496 59.0708 8.70666L61.5447 5.19939C61.6212 5.09501 61.7326 5.04282 61.8787 5.04282H65.3338C65.4869 5.04282 65.5982 5.09501 65.6678 5.19939L68.1521 8.70666C68.2217 8.80408 68.2565 8.90846 68.2565 9.0198V18.6961C68.2565 18.8701 68.1695 18.9571 67.9955 18.9571H65.0415C64.8675 18.9571 64.7805 18.8701 64.7805 18.6961V14.2598H62.4528V18.6961C62.4528 18.8701 62.3658 18.9571 62.1918 18.9571H59.2274ZM63.6115 12.0156C64.2517 12.0156 64.6831 11.8764 64.9058 11.5981C65.1354 11.3127 65.2503 10.7734 65.2503 9.98013C65.2503 9.18682 65.1354 8.65098 64.9058 8.37263C64.6831 8.08732 64.2517 7.94466 63.6115 7.94466C62.9782 7.94466 62.5467 8.08732 62.3171 8.37263C62.0944 8.65098 61.9831 9.18682 61.9831 9.98013C61.9831 10.7734 62.0944 11.3127 62.3171 11.5981C62.5467 11.8764 62.9782 12.0156 63.6115 12.0156Z" fill="#1F6F43"/>
<path d="M47.9243 18.9571C47.7504 18.9571 47.6634 18.8701 47.6634 18.6961V5.30377C47.6634 5.1298 47.7504 5.04282 47.9243 5.04282H53.8533C54.0203 5.04282 54.1595 5.09849 54.2708 5.20983L56.3585 7.29749C56.4768 7.41579 56.5359 7.55496 56.5359 7.71502V18.6961C56.5359 18.8701 56.4489 18.9571 56.275 18.9571H53.3209C53.147 18.9571 53.06 18.8701 53.06 18.6961V7.8194H51.1393V18.6961C51.1393 18.8701 51.0523 18.9571 50.8784 18.9571H47.9243Z" fill="#1F6F43"/>
<path d="M41.9509 18.9571C41.7769 18.9571 41.6899 18.8701 41.6899 18.6961V5.30377C41.6899 5.1298 41.7769 5.04282 41.9509 5.04282H44.9049C45.0789 5.04282 45.1659 5.1298 45.1659 5.30377V18.6961C45.1659 18.8701 45.0789 18.9571 44.9049 18.9571H41.9509Z" fill="#1F6F43"/>
<path d="M32.6135 18.9571C32.4395 18.9571 32.3525 18.8701 32.3525 18.6961V5.30377C32.3525 5.1298 32.4395 5.04282 32.6135 5.04282H39.7637C39.9377 5.04282 40.0247 5.1298 40.0247 5.30377V7.55844C40.0247 7.73242 39.9377 7.8194 39.7637 7.8194H35.8285V11.3058H39.2418C39.4158 11.3058 39.5028 11.3928 39.5028 11.5667V13.8214C39.5028 13.9954 39.4158 14.0824 39.2418 14.0824H35.8285V18.6961C35.8285 18.8701 35.7415 18.9571 35.5675 18.9571H32.6135Z" fill="#1F6F43"/>
</svg>
